# xmcd
#
# Track frame offsets:
#	150
#	29740
#	60730
#	89285
#	113547
#	142685
#	173250
#	207442
#	239205
#
# Disc length: 3613 seconds
#
# Revision: 0
# Processed by: cddbd v1.4b42PL1 Copyright (c) Steve Scherf et al.
# Submitted via: dBpowerAMP V4.0
#
DISCID=750e1b09
DTITLE=Nature and Music - Blues in the Night
DYEAR=1998
DGENRE=Blues
TTITLE0=Stardust
TTITLE1=After Hours
TTITLE2=Night Song
TTITLE3=Shadowland
TTITLE4=Blackwater Blues
TTITLE5=Blues in the Night
TTITLE6=Rendezvous
TTITLE7=Intimate Reflections
TTITLE8=Stormy Seduction
EXTD=
EXTT0=
EXTT1=
EXTT2=
EXTT3=
EXTT4=
EXTT5=
EXTT6=
EXTT7=
EXTT8=
PLAYORDER=
